<svg width="60" height="51" viewBox="0 0 60 51" fill="none" xmlns="http://www.w3.org/2000/svg">
<path fill-rule="evenodd" clip-rule="evenodd" d="M25.5 0C11.4134 0 0 11.4134 0 25.5C0 39.5777 11.4134 51 25.5 51C31.8917 51 37.7274 48.6426 42.202 44.7596V50.1238H59.798V0.587127H42.202V6.24045C37.7274 2.35741 31.8917 0 25.5 0ZM42.202 23.2979V6.24045C47.5884 10.9152 51 17.8051 51 25.5C51 33.1905 47.5884 40.0803 42.202 44.7596V29H43.4046C44.5193 29 45.0766 28.472 45.0766 27.416C45.0766 26.514 44.6219 25.9897 43.7126 25.843L42.4036 25.623C42.3302 25.6106 42.263 25.5925 42.202 25.5689V24.0935C42.295 24.0645 42.4025 24.05 42.5246 24.05H44.8126V23.61L44.3726 23.28H42.5356C42.4181 23.28 42.3069 23.286 42.202 23.2979ZM42.202 26.3476V25.5689C41.9037 25.4532 41.7546 25.2036 41.7546 24.82C41.7546 24.4287 41.9037 24.1865 42.202 24.0935V23.2979C41.3244 23.398 40.8856 23.9163 40.8856 24.853C40.8856 25.682 41.3244 26.1802 42.202 26.3476ZM42.202 26.3476V28.23H40.8856V28.67L41.3256 29H42.202V28.23H43.4266C43.9326 28.23 44.1856 27.9733 44.1856 27.46C44.1856 26.9393 43.9839 26.646 43.5806 26.58L42.2716 26.36C42.2481 26.3561 42.2249 26.3519 42.202 26.3476ZM7.572 27.339C7.572 28.4463 8.12567 29 9.233 29H12.126V24.93C12.126 23.83 11.576 23.28 10.476 23.28H8.562L8.122 23.61V24.05H10.476C10.9893 24.05 11.246 24.3067 11.246 24.82V25.678H9.233C8.12567 25.678 7.572 26.2317 7.572 27.339ZM9.222 28.23C8.70867 28.23 8.452 27.9733 8.452 27.46V27.163C8.452 26.6497 8.70867 26.393 9.222 26.393H11.246V28.23H9.222ZM13.7539 24.93V27.35C13.7539 28.45 14.3039 29 15.4039 29H17.8239L18.2639 28.67V28.23H15.4039C14.8906 28.23 14.6339 27.9733 14.6339 27.46V26.481H18.4839V24.93C18.4839 23.83 17.9339 23.28 16.8339 23.28H15.4039C14.3039 23.28 13.7539 23.83 13.7539 24.93ZM17.6039 25.766H14.6339V24.82C14.6339 24.3067 14.8906 24.05 15.4039 24.05H16.8339C17.3472 24.05 17.6039 24.3067 17.6039 24.82V25.766ZM20.0703 24.93V27.35C20.0703 28.45 20.6203 29 21.7203 29H23.8763L24.3163 28.67V28.23H21.7203C21.207 28.23 20.9503 27.9733 20.9503 27.46V24.82C20.9503 24.3067 21.207 24.05 21.7203 24.05H24.3163V23.61L23.8763 23.28H21.7203C20.6203 23.28 20.0703 23.83 20.0703 24.93ZM26.5813 20.86H25.7013V29H26.5813V24.05H28.7813C29.2946 24.05 29.5513 24.3067 29.5513 24.82V29H30.4313V24.93C30.4313 23.83 29.8813 23.28 28.7813 23.28H26.5813V20.86ZM32.0586 24.93V27.35C32.0586 28.45 32.6086 29 33.7086 29H36.1286L36.5686 28.67V28.23H33.7086C33.1953 28.23 32.9386 27.9733 32.9386 27.46V26.481H36.7886V24.93C36.7886 23.83 36.2386 23.28 35.1386 23.28H33.7086C32.6086 23.28 32.0586 23.83 32.0586 24.93ZM35.9086 25.766H32.9386V24.82C32.9386 24.3067 33.1953 24.05 33.7086 24.05H35.1386C35.6519 24.05 35.9086 24.3067 35.9086 24.82V25.766ZM38.419 21.179V22.213H39.387V21.179H38.419ZM38.463 23.28V29H39.343V23.28H38.463ZM46.5616 21.41V27.35C46.5616 28.45 47.1116 29 48.2116 29H49.2016L49.6416 28.67V28.23H48.2116C47.6983 28.23 47.4416 27.9733 47.4416 27.46V24.05H49.5316V23.28H47.4416V21.41H46.5616Z" fill="#3C15D8"/>
</svg>
