<svg width="139" height="51" viewBox="0 0 139 51" fill="none" xmlns="http://www.w3.org/2000/svg">
<path fill-rule="evenodd" clip-rule="evenodd" d="M25.5 0C11.4134 0 0 11.4134 0 25.5C0 39.5777 11.4134 51 25.5 51C31.8917 51 37.7274 48.6426 42.202 44.7596V50.1238H59.798V0.587127H42.202V6.24045C37.7274 2.35741 31.8917 0 25.5 0ZM42.202 6.24045V44.7596C47.5884 40.0803 51 33.1905 51 25.5C51 17.8051 47.5884 10.9152 42.202 6.24045ZM62.04 26.98C62.04 28.9933 63.0467 30 65.06 30H70.32V22.6C70.32 20.6 69.32 19.6 67.32 19.6H63.84L63.04 20.2V21H67.32C68.2533 21 68.72 21.4667 68.72 22.4V23.96H65.06C63.0467 23.96 62.04 24.9667 62.04 26.98ZM65.04 28.6C64.1067 28.6 63.64 28.1333 63.64 27.2V26.66C63.64 25.7267 64.1067 25.26 65.04 25.26H68.72V28.6H65.04ZM73.2798 22.6V27C73.2798 29 74.2798 30 76.2798 30H80.6798L81.4798 29.4V28.6H76.2798C75.3465 28.6 74.8798 28.1333 74.8798 27.2V25.42H81.8798V22.6C81.8798 20.6 80.8798 19.6 78.8798 19.6H76.2798C74.2798 19.6 73.2798 20.6 73.2798 22.6ZM80.2798 24.12H74.8798V22.4C74.8798 21.4667 75.3465 21 76.2798 21H78.8798C79.8132 21 80.2798 21.4667 80.2798 22.4V24.12ZM84.7642 22.6V27C84.7642 29 85.7642 30 87.7642 30H91.6842L92.4842 29.4V28.6H87.7642C86.8309 28.6 86.3642 28.1333 86.3642 27.2V22.4C86.3642 21.4667 86.8309 21 87.7642 21H92.4842V20.2L91.6842 19.6H87.7642C85.7642 19.6 84.7642 20.6 84.7642 22.6ZM96.6023 15.2H95.0023V30H96.6023V21H100.602C101.536 21 102.002 21.4667 102.002 22.4V30H103.602V22.6C103.602 20.6 102.602 19.6 100.602 19.6H96.6023V15.2ZM106.561 22.6V27C106.561 29 107.561 30 109.561 30H113.961L114.761 29.4V28.6H109.561C108.628 28.6 108.161 28.1333 108.161 27.2V25.42H115.161V22.6C115.161 20.6 114.161 19.6 112.161 19.6H109.561C107.561 19.6 106.561 20.6 106.561 22.6ZM113.561 24.12H108.161V22.4C108.161 21.4667 108.628 21 109.561 21H112.161C113.094 21 113.561 21.4667 113.561 22.4V24.12ZM118.125 15.78V17.66H119.885V15.78H118.125ZM118.205 19.6V30H119.805V19.6H118.205ZM122.61 28.6V29.4L123.41 30H127.19C129.217 30 130.23 29.04 130.23 27.12C130.23 25.48 129.403 24.5267 127.75 24.26L125.37 23.86C124.583 23.7267 124.19 23.24 124.19 22.4C124.19 21.4667 124.657 21 125.59 21H129.75V20.2L128.95 19.6H125.61C123.61 19.6 122.61 20.5533 122.61 22.46C122.61 24.0067 123.45 24.92 125.13 25.2L127.51 25.6C128.243 25.72 128.61 26.2533 128.61 27.2C128.61 28.1333 128.15 28.6 127.23 28.6H122.61ZM132.93 16.2V27C132.93 29 133.93 30 135.93 30H137.73L138.53 29.4V28.6H135.93C134.997 28.6 134.53 28.1333 134.53 27.2V21H138.33V19.6H134.53V16.2H132.93Z" fill="#3C15D8"/>
</svg>
